<svg width="43" height="17" viewBox="0 0 43 17" fill="none" xmlns="http://www.w3.org/2000/svg">
<path d="M9.59082 13.6338L9.10791 16.3516H2.2124L2.67285 13.6338H9.59082ZM6.04199 0L3.21191 16.3516H0L2.83008 0H6.04199ZM9.89404 6.62598L9.42236 9.26514H3.43652L3.89697 6.62598H9.89404ZM11.9155 0L11.4438 2.729H4.55957L5.04248 0H11.9155ZM16.3965 0L17.6768 5.604L20.6978 0H24.46L19.3838 8.25439L21.8657 16.3516H18.2832L17.0029 10.6465L13.9146 16.3516H10.0962L15.2959 7.97363L12.8589 0H16.3965ZM29.6147 0L26.7734 16.3516H23.5728L26.4141 0H29.6147ZM38.3071 0L35.4658 16.3516H32.2651L35.1064 0H38.3071ZM42.249 0L41.7661 2.729H30.7715L31.2432 0H42.249Z" fill="#2E7D5A"/>
</svg>
