<svg width="48" height="18" viewBox="0 0 48 18" fill="none" xmlns="http://www.w3.org/2000/svg">
<path d="M42.1992 0V17.0625H39.2812V0H42.1992ZM47.5547 0V2.34375H33.9727V0H47.5547Z" fill="#ffffff"/>
<path d="M31.875 0V17.0625H28.9336V0H31.875Z" fill="#ffffff"/>
<path d="M15.8086 0L19.4297 6.22266L23.0508 0H26.4375L21.2812 8.44922L26.5664 17.0625H23.1445L19.4297 10.7227L15.7148 17.0625H12.2812L17.5781 8.44922L12.4102 0H15.8086Z" fill="#ffffff"/>
<path d="M11.168 14.7305V17.0625H2.10938V14.7305H11.168ZM2.94141 0V17.0625H0V0H2.94141ZM9.98438 7.125V9.42188H2.10938V7.125H9.98438ZM11.1094 0V2.34375H2.10938V0H11.1094Z" fill="#ffffff"/>
</svg>